<?xml version="1.0" encoding="UTF-8"?>
<svg width="512" height="512" viewBox="0 0 512 512" xmlns="http://www.w3.org/2000/svg">
  <!-- Fond ardoise -->
  <rect width="512" height="512" rx="112" fill="#1a1f2e"/>
  <!-- Cercles décoratifs -->
  <circle cx="256" cy="220" r="195" fill="none" stroke="#2980b9" stroke-width="1.2" opacity="0.2"/>
  <circle cx="256" cy="220" r="165" fill="none" stroke="#00bcd4" stroke-width="0.8" opacity="0.12"/>
  <!-- Croix médicale ardoise foncée -->
  <rect x="204" y="50"  width="104" height="310" rx="20" fill="#2c3e50" opacity="0.95"/>
  <rect x="100" y="154" width="312" height="104" rx="20" fill="#2c3e50" opacity="0.95"/>
  <!-- Courbe de données cyan -->
  <polyline
    points="60,206 110,206 140,206 163,140 185,272 205,178 228,206 284,206 305,130 328,280 352,206 402,206 452,206"
    fill="none" stroke="#00bcd4" stroke-width="20" stroke-linecap="round" stroke-linejoin="round"/>
  <!-- Points -->
  <circle cx="163" cy="140" r="10" fill="#00bcd4"/>
  <circle cx="185" cy="272" r="9"  fill="#e74c3c"/>
  <circle cx="305" cy="130" r="10" fill="#00bcd4"/>
  <circle cx="328" cy="280" r="9"  fill="#e74c3c"/>
  <!-- Texte -->
  <text x="256" y="418" text-anchor="middle" font-family="Georgia,serif" font-size="88" font-weight="bold" fill="white">Medi</text>
  <text x="256" y="494" text-anchor="middle" font-family="Georgia,serif" font-size="88" font-weight="bold" font-style="italic" fill="#00bcd4">Trace</text>
</svg>
